<?xml version="1.0" encoding="UTF-8"?>
<svg id="Layer_1" xmlns="http://www.w3.org/2000/svg" xmlns:xlink="http://www.w3.org/1999/xlink" version="1.1" viewBox="0 0 288 24">
  <!-- Generator: Adobe Illustrator 29.3.0, SVG Export Plug-In . SVG Version: 2.1.0 Build 146)  -->
  <defs>
    <style>
      .st0 {
        fill: #22282b;
      }
    </style>
  </defs>
  <path class="st0" d="M89.5,0c-.5,0-1,.5-1.5,1l-9,10-9-10c-.5-.5-1-1-1.5-1h-4.5l13,15v9h4v-9L94,0h-4.5Z"/>
  <path class="st0" d="M186,0h-10c-7,0-10,4-10,12s3,12,10,12h10c7,0,11-4,11-12s-4-12-11-12ZM185,20h-8c-4,0-6-3-6-8s2-8,6-8h8c4,0,7,3,7,8s-3,8-7,8Z"/>
  <path class="st0" d="M288,0h-4c-2,0-3,1-4,2l-6.5,7.5c-.5.5-1,.5-1,.5,0,0-.5,0-1-.5l-6.5-7.5c-1-1-2-2-4-2h-4l10.5,11c.5.5.5,1.5,0,2l-10.5,11h4c2,0,3-1,4-2l6.5-7.5c.5-.5,1-.5,1-.5,0,0,.5,0,1,.5l6.5,7.5c1,1,2,2,4,2h4l-10-11c-.5-.5-.5-1.5,0-2l10-11Z"/>
  <path class="st0" d="M163,0h-25c-5,0-7,4-7,4h13v20h5V4h7c5,0,7-4,7-4Z"/>
  <path class="st0" d="M249,0h-5v24h5V0Z"/>
  <path class="st0" d="M233,24V0h-5v18l-17-16c-1-1-2-2-3-2h-4v24h5V6l17,16c1,1,3,2,4,2h3Z"/>
  <path class="st0" d="M100,0v24h5V4h13c4,0,5,2,5,4s-1,4-5,4h-5c-4,0-6,4-6,4h11c6,0,9-3,9-8s-3-8-9-8h-18Z"/>
  <path class="st0" d="M60,7.5c0-4.5-2-7.5-9-7.5h-16v24h5V4h11c4,0,5,2,5,3.5s-1,3.5-5,3.5h-3c-4,0-6,4-6,4h9l5.5,9h5.5l-6-10s4-2,4-6.5Z"/>
  <path class="st0" d="M10,19.5c-2,0-5.5-1.5-5.5-7.5s3.5-7.5,5.5-7.5h13c4,0,6-4.5,6-4.5H10C4,0,0,4.5,0,12s4,12,10,12h13c4,0,6-4.5,6-4.5H10Z"/>
</svg>