<svg id="shapes-2" xmlns="http://www.w3.org/2000/svg" viewBox="0 0 24 24">
  <path id="shape-2-1" fill="#0096ff" d="M24,0s-2,4.5-6,4.5H1.82C3.55,1.6,6.42,0,10,0h14Z"/>
  <path id="shape-2-2" fill="#ff9600" d="M24,19.5s-2,4.5-6,4.5h-8c-3.58,0-6.45-1.6-8.18-4.5h22.18Z"/>
  <path id="shape-2-3" fill="#00ff32" d="M10,19.5H1.82c-1.17-1.94-1.82-4.48-1.82-7.5s.65-5.56,1.82-7.5h8.18c-2,0-5.5,1.5-5.5,7.5s3.5,7.5,5.5,7.5Z"/>
  <path id="shape-2-4" fill="#ff0078" d="M10,4.5v15c-2,0-5.5-1.5-5.5-7.5s3.5-7.5,5.5-7.5Z"/>
</svg>