<svg id="shapes-1" xmlns="http://www.w3.org/2000/svg" viewBox="0 0 30 24">
  <path id="shape-1-1" fill="#0096ff" d="M30,0v19.5h-14c-2,0-5.5-1.5-5.5-7.5s3.5-7.5,5.5-7.5h8c4,0,6-4.5,6-4.5Z"/>
  <path id="shape-1-2" fill="#ff9600" d="M16,24H0V0h16C10,0,6,4.5,6,12s4,12,10,12Z"/>
  <path id="shape-1-3" fill="#00ff32" d="M30,19.5v4.5h-6c4,0,6-4.5,6-4.5Z"/>
  <path id="shape-1-4" fill="#ff0078" d="M16,19.5h14s-2,4.5-6,4.5h-8c-6,0-10-4.5-10-12S10,0,16,0h14s-2,4.5-6,4.5h-8c-2,0-5.5,1.5-5.5,7.5s3.5,7.5,5.5,7.5Z"/>
  <path id="shape-1-5" fill="#f22" d="M16,19.5h14s-2,4.5-6,4.5h-8c-6,0-10-4.5-10-12S10,0,16,0h14s-2,4.5-6,4.5h-8c-2,0-5.5,1.5-5.5,7.5s3.5,7.5,5.5,7.5Z"/>
</svg>